<svg version="1.1" viewBox="0.0 0.0 720.0 540.0" fill="none" stroke="none" stroke-linecap="square" stroke-miterlimit="10" xmlns:xlink="http://www.w3.org/1999/xlink" xmlns="http://www.w3.org/2000/svg"><clipPath id="p.0"><path d="m0 0l720.0 0l0 540.0l-720.0 0l0 -540.0z" clip-rule="nonzero"/></clipPath><g clip-path="url(#p.0)"><path fill="#000000" fill-opacity="0.0" d="m0 0l720.0 0l0 540.0l-720.0 0z" fill-rule="evenodd"/><path fill="#cfe2f3" d="m30.503937 193.0l114.99213 0l0 53.007874l-114.99213 0z" fill-rule="evenodd"/><path stroke="#000000" stroke-width="1.0" stroke-linejoin="round" stroke-linecap="butt" d="m30.503937 193.0l114.99213 0l0 53.007874l-114.99213 0z" fill-rule="evenodd"/><path fill="#cfe2f3" d="m91.50394 148.0l53.984253 0l0 45.007874l-53.984253 0z" fill-rule="evenodd"/><path stroke="#000000" stroke-width="1.0" stroke-linejoin="round" stroke-linecap="butt" d="m91.50394 148.0l53.984253 0l0 45.007874l-53.984253 0z" fill-rule="evenodd"/><path fill="#cfe2f3" d="m166.5 193.0l114.99213 0l0 53.007874l-114.99213 0z" fill-rule="evenodd"/><path stroke="#000000" stroke-width="1.0" stroke-linejoin="round" stroke-linecap="butt" d="m166.5 193.0l114.99213 0l0 53.007874l-114.99213 0z" fill-rule="evenodd"/><path fill="#cfe2f3" d="m302.50394 193.0l114.99213 0l0 53.007874l-114.99213 0z" fill-rule="evenodd"/><path stroke="#000000" stroke-width="1.0" stroke-linejoin="round" stroke-linecap="butt" d="m302.50394 193.0l114.99213 0l0 53.007874l-114.99213 0z" fill-rule="evenodd"/><path fill="#cfe2f3" d="m438.50394 193.0l114.992096 0l0 53.007874l-114.992096 0z" fill-rule="evenodd"/><path stroke="#000000" stroke-width="1.0" stroke-linejoin="round" stroke-linecap="butt" d="m438.50394 193.0l114.992096 0l0 53.007874l-114.992096 0z" fill-rule="evenodd"/><path fill="#cfe2f3" d="m574.5026 193.0l114.99213 0l0 53.007874l-114.99213 0z" fill-rule="evenodd"/><path stroke="#000000" stroke-width="1.0" stroke-linejoin="round" stroke-linecap="butt" d="m574.5026 193.0l114.99213 0l0 53.007874l-114.99213 0z" fill-rule="evenodd"/><path fill="#cfe2f3" d="m96.48819 244.99213l0 0c0 -11.324005 8.2844925 -20.503937 18.503937 -20.503937l0 0c4.907547 0 9.614098 2.1602325 13.084259 6.0054626c3.4701538 3.84523 5.4196777 9.060486 5.4196777 14.498474l0 0c0 11.324005 -8.2844925 20.503937 -18.503937 20.503937l0 0c-10.219444 0 -18.503937 -9.179932 -18.503937 -20.503937z" fill-rule="evenodd"/><path stroke="#000000" stroke-width="1.0" stroke-linejoin="round" stroke-linecap="butt" d="m96.48819 244.99213l0 0c0 -11.324005 8.2844925 -20.503937 18.503937 -20.503937l0 0c4.907547 0 9.614098 2.1602325 13.084259 6.0054626c3.4701538 3.84523 5.4196777 9.060486 5.4196777 14.498474l0 0c0 11.324005 -8.2844925 20.503937 -18.503937 20.503937l0 0c-10.219444 0 -18.503937 -9.179932 -18.503937 -20.503937z" fill-rule="evenodd"/><path fill="#cfe2f3" d="m42.496063 244.99213l0 0c0 -11.324005 8.284496 -20.503937 18.503937 -20.503937l0 0c4.907547 0 9.614098 2.1602325 13.084259 6.0054626c3.4701614 3.84523 5.4196777 9.060486 5.4196777 14.498474l0 0c0 11.324005 -8.2844925 20.503937 -18.503937 20.503937l0 0c-10.21944 0 -18.503937 -9.179932 -18.503937 -20.503937z" fill-rule="evenodd"/><path stroke="#000000" stroke-width="1.0" stroke-linejoin="round" stroke-linecap="butt" d="m42.496063 244.99213l0 0c0 -11.324005 8.284496 -20.503937 18.503937 -20.503937l0 0c4.907547 0 9.614098 2.1602325 13.084259 6.0054626c3.4701614 3.84523 5.4196777 9.060486 5.4196777 14.498474l0 0c0 11.324005 -8.2844925 20.503937 -18.503937 20.503937l0 0c-10.21944 0 -18.503937 -9.179932 -18.503937 -20.503937z" fill-rule="evenodd"/><path fill="#cfe2f3" d="m232.49213 244.99213l0 0c0 -11.324005 8.2845 -20.503937 18.503937 -20.503937l0 0c4.907547 0 9.614105 2.1602325 13.084259 6.0054626c3.4701538 3.84523 5.4196777 9.060486 5.4196777 14.498474l0 0c0 11.324005 -8.284485 20.503937 -18.503937 20.503937l0 0c-10.219437 0 -18.503937 -9.179932 -18.503937 -20.503937z" fill-rule="evenodd"/><path stroke="#000000" stroke-width="1.0" stroke-linejoin="round" stroke-linecap="butt" d="m232.49213 244.99213l0 0c0 -11.324005 8.2845 -20.503937 18.503937 -20.503937l0 0c4.907547 0 9.614105 2.1602325 13.084259 6.0054626c3.4701538 3.84523 5.4196777 9.060486 5.4196777 14.498474l0 0c0 11.324005 -8.284485 20.503937 -18.503937 20.503937l0 0c-10.219437 0 -18.503937 -9.179932 -18.503937 -20.503937z" fill-rule="evenodd"/><path fill="#cfe2f3" d="m178.5 244.99213l0 0c0 -11.324005 8.2845 -20.503937 18.503937 -20.503937l0 0c4.907547 0 9.614105 2.1602325 13.084259 6.0054626c3.470169 3.84523 5.4196777 9.060486 5.4196777 14.498474l0 0c0 11.324005 -8.2845 20.503937 -18.503937 20.503937l0 0c-10.219437 0 -18.503937 -9.179932 -18.503937 -20.503937z" fill-rule="evenodd"/><path stroke="#000000" stroke-width="1.0" stroke-linejoin="round" stroke-linecap="butt" d="m178.5 244.99213l0 0c0 -11.324005 8.2845 -20.503937 18.503937 -20.503937l0 0c4.907547 0 9.614105 2.1602325 13.084259 6.0054626c3.470169 3.84523 5.4196777 9.060486 5.4196777 14.498474l0 0c0 11.324005 -8.2845 20.503937 -18.503937 20.503937l0 0c-10.219437 0 -18.503937 -9.179932 -18.503937 -20.503937z" fill-rule="evenodd"/><path fill="#cfe2f3" d="m368.4908 244.99213l0 0c0 -11.324005 8.284485 -20.503937 18.503937 -20.503937l0 0c4.9075623 0 9.614105 2.1602325 13.084259 6.0054626c3.4701538 3.84523 5.4196777 9.060486 5.4196777 14.498474l0 0c0 11.324005 -8.284485 20.503937 -18.503937 20.503937l0 0c-10.219452 0 -18.503937 -9.179932 -18.503937 -20.503937z" fill-rule="evenodd"/><path stroke="#000000" stroke-width="1.0" stroke-linejoin="round" stroke-linecap="butt" d="m368.4908 244.99213l0 0c0 -11.324005 8.284485 -20.503937 18.503937 -20.503937l0 0c4.9075623 0 9.614105 2.1602325 13.084259 6.0054626c3.4701538 3.84523 5.4196777 9.060486 5.4196777 14.498474l0 0c0 11.324005 -8.284485 20.503937 -18.503937 20.503937l0 0c-10.219452 0 -18.503937 -9.179932 -18.503937 -20.503937z" fill-rule="evenodd"/><path fill="#cfe2f3" d="m314.4987 244.99213l0 0c0 -11.324005 8.284485 -20.503937 18.503937 -20.503937l0 0c4.9075623 0 9.614105 2.1602325 13.084259 6.0054626c3.4701538 3.84523 5.4196777 9.060486 5.4196777 14.498474l0 0c0 11.324005 -8.284485 20.503937 -18.503937 20.503937l0 0c-10.219452 0 -18.503937 -9.179932 -18.503937 -20.503937z" fill-rule="evenodd"/><path stroke="#000000" stroke-width="1.0" stroke-linejoin="round" stroke-linecap="butt" d="m314.4987 244.99213l0 0c0 -11.324005 8.284485 -20.503937 18.503937 -20.503937l0 0c4.9075623 0 9.614105 2.1602325 13.084259 6.0054626c3.4701538 3.84523 5.4196777 9.060486 5.4196777 14.498474l0 0c0 11.324005 -8.284485 20.503937 -18.503937 20.503937l0 0c-10.219452 0 -18.503937 -9.179932 -18.503937 -20.503937z" fill-rule="evenodd"/><path fill="#cfe2f3" d="m504.49213 244.99213l0 0c0 -11.324005 8.284485 -20.503937 18.503906 -20.503937l0 0c4.907593 0 9.614136 2.1602325 13.08429 6.0054626c3.4701538 3.84523 5.4196777 9.060486 5.4196777 14.498474l0 0c0 11.324005 -8.284485 20.503937 -18.503967 20.503937l0 0c-10.219421 0 -18.503906 -9.179932 -18.503906 -20.503937z" fill-rule="evenodd"/><path stroke="#000000" stroke-width="1.0" stroke-linejoin="round" stroke-linecap="butt" d="m504.49213 244.99213l0 0c0 -11.324005 8.284485 -20.503937 18.503906 -20.503937l0 0c4.907593 0 9.614136 2.1602325 13.08429 6.0054626c3.4701538 3.84523 5.4196777 9.060486 5.4196777 14.498474l0 0c0 11.324005 -8.284485 20.503937 -18.503967 20.503937l0 0c-10.219421 0 -18.503906 -9.179932 -18.503906 -20.503937z" fill-rule="evenodd"/><path fill="#cfe2f3" d="m450.5 244.99213l0 0c0 -11.324005 8.284485 -20.503937 18.503937 -20.503937l0 0c4.9075623 0 9.614105 2.1602325 13.084259 6.0054626c3.4701538 3.84523 5.4196777 9.060486 5.4196777 14.498474l0 0c0 11.324005 -8.284485 20.503937 -18.503937 20.503937l0 0c-10.219452 0 -18.503937 -9.179932 -18.503937 -20.503937z" fill-rule="evenodd"/><path stroke="#000000" stroke-width="1.0" stroke-linejoin="round" stroke-linecap="butt" d="m450.5 244.99213l0 0c0 -11.324005 8.284485 -20.503937 18.503937 -20.503937l0 0c4.9075623 0 9.614105 2.1602325 13.084259 6.0054626c3.4701538 3.84523 5.4196777 9.060486 5.4196777 14.498474l0 0c0 11.324005 -8.284485 20.503937 -18.503937 20.503937l0 0c-10.219452 0 -18.503937 -9.179932 -18.503937 -20.503937z" fill-rule="evenodd"/><path fill="#cfe2f3" d="m640.4921 244.99213l0 0c0 -11.324005 8.284485 -20.503937 18.503906 -20.503937l0 0c4.907593 0 9.614136 2.1602325 13.08429 6.0054626c3.4701538 3.84523 5.4196777 9.060486 5.4196777 14.498474l0 0c0 11.324005 -8.284485 20.503937 -18.503967 20.503937l0 0c-10.219421 0 -18.503906 -9.179932 -18.503906 -20.503937z" fill-rule="evenodd"/><path stroke="#000000" stroke-width="1.0" stroke-linejoin="round" stroke-linecap="butt" d="m640.4921 244.99213l0 0c0 -11.324005 8.284485 -20.503937 18.503906 -20.503937l0 0c4.907593 0 9.614136 2.1602325 13.08429 6.0054626c3.4701538 3.84523 5.4196777 9.060486 5.4196777 14.498474l0 0c0 11.324005 -8.284485 20.503937 -18.503967 20.503937l0 0c-10.219421 0 -18.503906 -9.179932 -18.503906 -20.503937z" fill-rule="evenodd"/><path fill="#cfe2f3" d="m586.5 244.99213l0 0c0 -11.324005 8.284485 -20.503937 18.503967 -20.503937l0 0c4.9075317 0 9.614075 2.1602325 13.0842285 6.0054626c3.4701538 3.84523 5.4196777 9.060486 5.4196777 14.498474l0 0c0 11.324005 -8.284485 20.503937 -18.503906 20.503937l0 0c-10.219482 0 -18.503967 -9.179932 -18.503967 -20.503937z" fill-rule="evenodd"/><path stroke="#000000" stroke-width="1.0" stroke-linejoin="round" stroke-linecap="butt" d="m586.5 244.99213l0 0c0 -11.324005 8.284485 -20.503937 18.503967 -20.503937l0 0c4.9075317 0 9.614075 2.1602325 13.0842285 6.0054626c3.4701538 3.84523 5.4196777 9.060486 5.4196777 14.498474l0 0c0 11.324005 -8.284485 20.503937 -18.503906 20.503937l0 0c-10.219482 0 -18.503967 -9.179932 -18.503967 -20.503937z" fill-rule="evenodd"/><path fill="#000000" fill-opacity="0.0" d="m99.99213 94.99213l37.007874 0l0 53.007874l-37.007874 0z" fill-rule="evenodd"/><path fill="#000000" d="m120.914 134.71213l-2.8125 0l0 -17.921875q-1.015625 0.96875 -2.671875 1.9375q-1.640625 0.96875 -2.953125 1.453125l0 -2.71875q2.359375 -1.109375 4.125 -2.6875q1.765625 -1.578125 2.5 -3.0625l1.8125 0l0 23.0z" fill-rule="nonzero"/><path fill="#000000" fill-opacity="0.0" d="m205.49606 148.0l37.007874 0l0 53.007874l-37.007874 0z" fill-rule="evenodd"/><path fill="#000000" d="m230.60544 185.01688l0 2.703125l-15.140625 0q-0.03125 -1.015625 0.328125 -1.953125q0.578125 -1.546875 1.84375 -3.046875q1.28125 -1.5 3.6875 -3.46875q3.734375 -3.0625 5.046875 -4.84375q1.3125 -1.796875 1.3125 -3.390625q0 -1.671875 -1.203125 -2.8125q-1.1875 -1.15625 -3.109375 -1.15625q-2.03125 0 -3.25 1.21875q-1.21875 1.21875 -1.234375 3.375l-2.890625 -0.296875q0.296875 -3.234375 2.234375 -4.921875q1.9375 -1.703125 5.203125 -1.703125q3.296875 0 5.21875 1.828125q1.921875 1.828125 1.921875 4.53125q0 1.375 -0.5625 2.703125q-0.5625 1.328125 -1.875 2.796875q-1.296875 1.46875 -4.328125 4.03125q-2.53125 2.125 -3.25 2.890625q-0.71875 0.75 -1.1875 1.515625l11.234375 0z" fill-rule="nonzero"/><path fill="#000000" fill-opacity="0.0" d="m341.49475 148.0l37.007874 0l0 53.007874l-37.007874 0z" fill-rule="evenodd"/><path fill="#000000" d="m351.8385 181.67313l2.8125 -0.375q0.484375 2.390625 1.640625 3.453125q1.171875 1.046875 2.84375 1.046875q1.984375 0 3.34375 -1.375q1.375 -1.375 1.375 -3.40625q0 -1.9375 -1.265625 -3.1875q-1.265625 -1.265625 -3.21875 -1.265625q-0.796875 0 -1.984375 0.3125l0.3125 -2.46875q0.28125 0.03125 0.453125 0.03125q1.796875 0 3.234375 -0.9375q1.4375 -0.9375 1.4375 -2.890625q0 -1.546875 -1.046875 -2.5625q-1.046875 -1.015625 -2.703125 -1.015625q-1.640625 0 -2.734375 1.03125q-1.09375 1.03125 -1.40625 3.09375l-2.8125 -0.5q0.515625 -2.828125 2.34375 -4.375q1.828125 -1.5625 4.546875 -1.5625q1.875 0 3.453125 0.8125q1.578125 0.796875 2.40625 2.1875q0.84375 1.390625 0.84375 2.953125q0 1.484375 -0.796875 2.703125q-0.796875 1.21875 -2.359375 1.9375q2.03125 0.46875 3.15625 1.953125q1.125 1.46875 1.125 3.6875q0 3.0 -2.1875 5.09375q-2.1875 2.078125 -5.53125 2.078125q-3.015625 0 -5.015625 -1.796875q-1.984375 -1.796875 -2.265625 -4.65625z" fill-rule="nonzero"/><path fill="#000000" fill-opacity="0.0" d="m613.49603 148.0l37.007935 0l0 53.007874l-37.007935 0z" fill-rule="evenodd"/><path fill="#000000" d="m623.82416 181.72l2.953125 -0.25q0.328125 2.15625 1.515625 3.25q1.203125 1.078125 2.890625 1.078125q2.03125 0 3.4375 -1.53125q1.40625 -1.53125 1.40625 -4.0625q0 -2.40625 -1.359375 -3.796875q-1.34375 -1.390625 -3.53125 -1.390625q-1.359375 0 -2.453125 0.625q-1.09375 0.609375 -1.71875 1.59375l-2.640625 -0.34375l2.21875 -11.765625l11.390625 0l0 2.6875l-9.140625 0l-1.234375 6.15625q2.0625 -1.4375 4.328125 -1.4375q3.0 0 5.0625 2.078125q2.0625 2.078125 2.0625 5.34375q0 3.109375 -1.8125 5.375q-2.203125 2.78125 -6.015625 2.78125q-3.125 0 -5.109375 -1.75q-1.96875 -1.75 -2.25 -4.640625z" fill-rule="nonzero"/><path fill="#000000" fill-opacity="0.0" d="m477.49606 148.0l37.007904 0l0 53.007874l-37.007904 0z" fill-rule="evenodd"/><path fill="#000000" d="m496.8398 187.72l0 -5.484375l-9.9375 0l0 -2.578125l10.453125 -14.84375l2.296875 0l0 14.84375l3.09375 0l0 2.578125l-3.09375 0l0 5.484375l-2.8125 0zm0 -8.0625l0 -10.328125l-7.171875 10.328125l7.171875 0z" fill-rule="nonzero"/><path fill="#000000" fill-opacity="0.0" d="m145.49606 219.50394l21.007874 0" fill-rule="evenodd"/><path stroke="#000000" stroke-width="1.0" stroke-linejoin="round" stroke-linecap="butt" d="m145.49606 219.50394l21.007874 0" fill-rule="evenodd"/><path fill="#000000" fill-opacity="0.0" d="m281.49606 219.50394l21.007874 0" fill-rule="evenodd"/><path stroke="#000000" stroke-width="1.0" stroke-linejoin="round" stroke-linecap="butt" d="m281.49606 219.50394l21.007874 0" fill-rule="evenodd"/><path fill="#000000" fill-opacity="0.0" d="m417.49475 219.50394l21.007874 0" fill-rule="evenodd"/><path stroke="#000000" stroke-width="1.0" stroke-linejoin="round" stroke-linecap="butt" d="m417.49475 219.50394l21.007874 0" fill-rule="evenodd"/><path fill="#000000" fill-opacity="0.0" d="m553.49603 219.50394l21.007935 0" fill-rule="evenodd"/><path stroke="#000000" stroke-width="1.0" stroke-linejoin="round" stroke-linecap="butt" d="m553.49603 219.50394l21.007935 0" fill-rule="evenodd"/></g></svg>